<svg xmlns="http://www.w3.org/2000/svg" width="183.615" height="44.679" viewBox="0 0 183.615 44.679"><g id="aelizaaccent" fill="" data-name="aelizaaccent" transform="translate(0.062 0.009)"><path id="aelizaaccent" data-name="Path 1778" d="M85.92,41.3H75.22a1.69,1.69,0,0,0,0,3.37h10.7a1.69,1.69,0,0,0,0-3.37Z" fill="#fff"></path><path id="aelizaaccent" data-name="Path 1779" d="M183.45,32.35,171.57,1.82h0A2.79,2.79,0,0,0,169,.05h-.79a2.79,2.79,0,0,0-2.56,1.77L153.78,32.35h0a1.994,1.994,0,0,0,3.76,1.33l2.85-7.93h0a2.36,2.36,0,0,1,2.25-1.64h11.94a2.37,2.37,0,0,1,2.26,1.65l2.85,7.92a1.951,1.951,0,0,0,2.52,1.2,1.93,1.93,0,0,0,1.13-1A2,2,0,0,0,183.45,32.35Zm-16-26.13a1.29,1.29,0,0,1,2.41,0h0l4.46,12.44h0a1.44,1.44,0,0,1,.09.51,1.59,1.59,0,0,1-1.59,1.59h-8.33a1.59,1.59,0,0,1-1.59-1.59,1.7,1.7,0,0,1,.08-.51h0l4.47-12.44Z" fill="#fff"></path><rect id="aelizaaccent" data-name="Rectangle 1842" width="6.98" height="6.98" rx="1.85" transform="translate(84.45 7.85)" fill="#fff"></rect><path id="aelizaaccent" data-name="Path 1780" d="M107.35,0a2.16,2.16,0,0,0-1.88,2.21v30.3a2.18,2.18,0,0,0,1.88,2.22,2.07,2.07,0,0,0,2.26-2.07V2.09A2.07,2.07,0,0,0,107.35,0Z" fill="#fff"></path><path id="aelizaaccent" data-name="Path 1781" d="M44.82,3.38H60.54a1.68,1.68,0,0,0,0-3.36h-20a2,2,0,0,0-2,2V32.74a2,2,0,0,0,2,2h20a1.68,1.68,0,0,0,0-3.36H44.82a2.32,2.32,0,0,1-2.32-2.32V20.84a2.32,2.32,0,0,1,2.32-2.32H60.54a1.69,1.69,0,1,0,0-3.37H44.82a2.31,2.31,0,0,1-2.32-2.31V5.69a2.31,2.31,0,0,1,2.32-2.31Z" fill="#fff"></path><path id="aelizaaccent" data-name="Path 1782" d="M94.41,31.39H79.89a2.32,2.32,0,0,1-2.32-2.32V2a2,2,0,1,0-4,0V32.74a2,2,0,0,0,2,2H94.41a1.68,1.68,0,0,0,0-3.36Z" fill="#fff"></path><path id="aelizaaccent" data-name="Path 1783" d="M144.51,31.39H126.27a1.34,1.34,0,0,1-1.35-1.34,1.36,1.36,0,0,1,.31-.87h0L145.29,4.79h0a4,4,0,0,0,.88-2.87V1.83h0V1.76h0V1.5h0a2,2,0,0,0-.68-1,.67.67,0,0,0-.14-.09h0L145.06.2l-.2-.07h-.26a1.18,1.18,0,0,0-.21,0H120.64a1.71,1.71,0,0,0-.65.13h0l-.19.1h-.07a1.57,1.57,0,0,0-.25.2h0A1.63,1.63,0,0,0,119,1.68a1.76,1.76,0,0,0,.07.45.432.432,0,0,1,0,.05h0a1.08,1.08,0,0,0,.13.29h0a1.26,1.26,0,0,0,.27.37h0a1.64,1.64,0,0,0,.25.21,1.91,1.91,0,0,0,.28.15h0a1.65,1.65,0,0,0,.66.13H138.9a1.35,1.35,0,0,1,1.34,1.35,1.41,1.41,0,0,1-.3.87h0L119.87,30l-.13.16a3.67,3.67,0,0,0-.7,3.16h0A2,2,0,0,0,121,34.76h23.54a1.68,1.68,0,0,0,0-3.36Z" fill="#fff"></path><path id="aelizaaccent" data-name="Path 1784" d="M29.78,32.31,17.91,1.78h0A2.8,2.8,0,0,0,15.35,0h-.79A2.8,2.8,0,0,0,12,1.78h0L.12,32.31h0a2,2,0,1,0,3.75,1.35h0l2.85-7.93h0A2.35,2.35,0,0,1,9,24.1H20.91a2.38,2.38,0,0,1,2.27,1.64h0L26,33.66h0a2,2,0,0,0,1,1.13,1.91,1.91,0,0,0,.84.19,1.981,1.981,0,0,0,1.89-2.65ZM9.28,18.62,13.75,6.17a1.29,1.29,0,0,1,2.41,0h0l4.46,12.44h0a1.48,1.48,0,0,1,.09.51,1.6,1.6,0,0,1-1.6,1.59H10.79A1.59,1.59,0,0,1,9.2,19.13a1.75,1.75,0,0,1,.08-.51l-.2-.07h0ZM20.82,18.55Z" fill="#fff"></path></g></svg>